<?xml version="1.0" standalone="no"?>
<!DOCTYPE svg PUBLIC "-//W3C//DTD SVG 20010904//EN"
 "http://www.w3.org/TR/2001/REC-SVG-20010904/DTD/svg10.dtd">
<svg version="1.0" xmlns="http://www.w3.org/2000/svg"
 width="2048.000000pt" height="2048.000000pt" viewBox="0 0 2048.000000 2048.000000"
 preserveAspectRatio="xMidYMid meet">
<metadata>
Created by potrace 1.11, written by Peter Selinger 2001-2013
</metadata>
<g transform="translate(0.000000,2048.000000) scale(0.100000,-0.100000)"
fill="#000000" stroke="none">
<path d="M1860 18090 c0 -5 -10 -10 -22 -10 -13 0 -34 -9 -48 -20 -14 -11 -31
-20 -37 -20 -7 0 -13 -4 -13 -10 0 -5 -6 -10 -14 -10 -17 0 -230 -209 -266
-260 -13 -19 -37 -47 -52 -62 -15 -14 -28 -30 -28 -36 0 -5 -13 -23 -30 -40
-16 -18 -30 -38 -30 -45 0 -7 -9 -19 -20 -27 -11 -8 -20 -19 -20 -25 0 -5 -14
-26 -30 -45 -16 -19 -30 -39 -30 -43 0 -4 -9 -17 -20 -29 -11 -12 -20 -28 -20
-35 0 -7 -4 -13 -10 -13 -5 0 -10 -6 -10 -13 0 -7 -8 -22 -17 -33 -10 -11 -24
-30 -30 -42 -7 -12 -19 -32 -25 -44 -7 -12 -21 -31 -30 -42 -10 -11 -18 -26
-18 -33 0 -7 -4 -13 -10 -13 -5 0 -10 -9 -10 -20 0 -11 -4 -20 -10 -20 -5 0
-10 -9 -10 -20 0 -11 -4 -20 -10 -20 -5 0 -10 -6 -10 -13 0 -7 -9 -23 -20 -35
-11 -12 -20 -28 -20 -36 0 -8 -3 -16 -7 -18 -10 -4 -42 -57 -50 -80 -3 -10 -9
-18 -14 -18 -5 0 -9 -9 -9 -20 0 -11 -4 -20 -10 -20 -5 0 -10 -9 -10 -20 0
-11 -4 -20 -10 -20 -5 0 -10 -9 -10 -19 0 -11 -3 -21 -8 -23 -10 -4 -132 -250
-132 -265 0 -7 -4 -13 -10 -13 -5 0 -10 -9 -10 -20 0 -11 -4 -20 -10 -20 -5 0
-10 -9 -10 -20 0 -11 -4 -20 -10 -20 -5 0 -10 -9 -10 -20 0 -11 -4 -20 -10
-20 -5 0 -10 -9 -10 -20 0 -11 -4 -20 -10 -20 -5 0 -10 -9 -10 -20 0 -11 -4
-20 -10 -20 -5 0 -10 -7 -10 -15 0 -8 -4 -24 -10 -35 -5 -11 -14 -29 -20 -40
-5 -11 -10 -27 -10 -35 0 -8 -4 -15 -10 -15 -5 0 -10 -9 -10 -20 0 -11 -4 -20
-10 -20 -5 0 -10 -9 -10 -20 0 -11 -9 -35 -20 -55 -11 -20 -20 -42 -20 -50 0
-8 -4 -15 -10 -15 -5 0 -10 -9 -10 -19 0 -11 -4 -23 -10 -26 -5 -3 -10 -17
-10 -31 0 -13 -4 -24 -10 -24 -5 0 -10 -9 -10 -19 0 -11 -4 -23 -10 -26 -5 -3
-10 -17 -10 -31 0 -13 -4 -24 -10 -24 -5 0 -10 -9 -10 -20 0 -11 -4 -28 -9
-38 -5 -9 -14 -29 -20 -44 -6 -16 -16 -40 -22 -55 -6 -16 -15 -36 -20 -45 -5
-10 -9 -27 -9 -38 0 -11 -4 -20 -10 -20 -5 0 -10 -13 -10 -30 0 -16 -4 -30
-10 -30 -5 0 -10 -13 -10 -30 0 -16 -4 -30 -10 -30 -5 0 -10 -13 -10 -30 0
-16 -4 -30 -10 -30 -5 0 -10 -13 -10 -30 0 -16 -4 -30 -10 -30 -5 0 -10 -13
-10 -29 0 -17 -4 -33 -10 -36 -5 -3 -10 -19 -10 -35 0 -16 -4 -32 -10 -35 -5
-3 -10 -17 -10 -30 0 -13 -4 -27 -10 -30 -5 -3 -10 -19 -10 -35 0 -16 -4 -32
-10 -35 -5 -3 -10 -24 -10 -45 0 -21 -4 -42 -10 -45 -5 -3 -10 -24 -10 -45 0
-21 -5 -42 -10 -45 -6 -3 -10 -28 -10 -54 0 -26 -4 -51 -9 -56 -5 -6 -12 -46
-16 -90 -10 -106 -10 -6753 -1 -6875 5 -52 12 -99 17 -104 5 -6 9 -32 9 -58 0
-26 5 -48 10 -48 6 0 10 -18 10 -40 0 -22 5 -40 10 -40 6 0 10 -11 10 -25 0
-14 4 -33 9 -43 5 -9 15 -38 23 -64 7 -27 16 -48 20 -48 4 0 8 -7 8 -15 0 -8
4 -24 10 -35 5 -11 14 -29 20 -40 5 -11 10 -27 10 -35 0 -8 5 -15 10 -15 6 0
10 -9 10 -20 0 -11 5 -20 10 -20 6 0 10 -9 10 -20 0 -11 5 -20 10 -20 6 0 10
-6 10 -13 0 -7 8 -22 18 -33 9 -10 23 -31 31 -47 8 -15 18 -27 23 -27 4 0 8
-6 8 -14 0 -7 13 -27 30 -44 16 -18 30 -36 30 -41 0 -12 186 -201 198 -201 5
0 23 -13 40 -30 18 -16 36 -30 40 -30 5 0 17 -8 28 -18 23 -21 184 -102 202
-102 6 0 12 -4 12 -10 0 -5 14 -10 30 -10 17 0 30 -4 30 -10 0 -5 15 -10 33
-10 18 0 37 -4 42 -9 17 -15 93 -23 288 -27 106 -3 187 -9 187 -15 0 -5 -8 -9
-17 -9 -16 0 -63 -13 -108 -30 -11 -5 -54 -18 -95 -30 -41 -11 -85 -25 -98
-31 -13 -5 -32 -9 -42 -9 -28 0 -91 -37 -117 -68 -22 -26 -23 -33 -23 -260 l0
-233 44 -43 c37 -38 52 -45 97 -51 91 -11 1141 -1 1169 12 14 6 59 21 100 33
41 12 84 26 95 30 11 4 40 13 65 20 25 6 53 16 62 21 10 5 27 9 38 9 11 0 28
4 38 9 23 12 268 91 281 91 7 0 11 -26 11 -67 0 -67 20 -242 41 -358 6 -33 13
-80 16 -105 3 -25 9 -49 14 -54 5 -6 9 -27 9 -47 0 -21 5 -41 10 -44 6 -3 10
-21 10 -40 0 -19 5 -37 10 -40 6 -3 10 -16 10 -28 0 -26 98 -318 111 -332 5
-5 9 -17 9 -27 0 -10 4 -26 9 -36 5 -9 13 -28 19 -42 29 -74 183 -375 222
-435 24 -38 52 -82 60 -97 18 -34 177 -255 228 -319 45 -56 138 -162 212 -242
71 -77 400 -367 415 -367 4 0 23 -13 43 -28 105 -80 150 -112 159 -112 5 0 18
-9 28 -20 10 -11 22 -20 28 -20 5 0 21 -8 35 -19 15 -10 44 -28 65 -40 20 -11
54 -31 75 -43 73 -43 283 -142 402 -190 14 -6 33 -14 42 -19 10 -5 27 -9 37
-9 11 0 23 -4 26 -10 3 -6 16 -10 29 -10 12 0 26 -4 32 -8 10 -9 41 -19 154
-52 41 -12 85 -26 98 -31 13 -5 35 -9 50 -9 16 0 32 -4 38 -9 5 -5 27 -11 49
-15 22 -3 67 -10 100 -16 231 -42 382 -54 660 -54 248 0 341 6 535 34 36 5 88
12 115 16 28 3 54 10 59 15 6 5 29 9 52 9 24 0 46 5 49 10 3 6 21 10 40 10 19
0 37 5 40 10 3 6 17 10 30 10 13 0 34 4 47 9 13 6 57 20 98 32 41 12 79 26 84
31 6 4 18 8 28 8 10 0 26 4 36 9 22 11 59 26 102 41 102 36 427 198 502 251
14 11 29 19 33 19 3 0 25 12 48 28 23 15 50 32 58 37 47 29 154 108 292 215
51 39 305 270 309 280 2 5 41 50 88 101 46 50 96 107 110 125 148 193 180 236
180 243 0 4 9 16 20 26 11 10 20 22 20 27 0 5 18 36 41 69 108 160 273 503
350 730 l12 37 131 6 c501 25 732 54 1006 123 52 14 110 29 129 33 39 10 60
-7 61 -47 0 -12 4 -24 9 -27 5 -3 11 -16 14 -28 7 -32 76 -230 87 -250 6 -10
10 -27 10 -37 0 -11 5 -23 10 -26 6 -3 10 -16 10 -29 0 -12 5 -27 12 -34 9 -9
5 -12 -18 -12 -38 0 -186 -41 -245 -68 -25 -12 -63 -40 -84 -63 -33 -37 -37
-46 -32 -81 3 -22 15 -51 28 -64 41 -43 142 -89 259 -116 64 -15 426 -22 473
-9 20 6 56 16 80 22 73 20 163 66 201 104 41 41 46 80 17 130 -18 32 -123 92
-196 112 -96 27 -125 33 -162 33 -22 0 -45 6 -51 13 -5 6 -24 55 -41 107 -18
52 -36 103 -41 112 -6 10 -10 25 -10 33 0 8 -4 23 -10 33 -5 9 -28 71 -50 137
-22 66 -45 127 -50 137 -7 13 3 22 63 53 179 90 293 177 390 298 57 72 137
215 137 247 0 9 4 20 9 25 11 12 21 82 27 201 l5 91 70 92 c38 50 69 94 69 96
0 2 28 42 63 88 34 47 92 127 130 178 157 218 195 270 247 344 30 42 83 115
118 162 34 46 62 86 62 89 0 15 57 74 72 74 9 0 20 5 23 10 3 6 15 10 26 10
10 0 27 4 37 9 17 9 171 58 252 80 25 7 53 17 62 22 10 5 27 9 37 9 11 0 23 5
26 10 3 6 19 10 35 10 16 0 32 5 35 10 3 6 19 10 34 10 15 0 31 3 35 7 12 13
76 31 76 22 0 -5 -4 -17 -9 -27 -21 -41 -62 -153 -92 -247 -12 -38 -25 -78
-30 -87 -5 -10 -9 -31 -9 -47 0 -17 -4 -32 -9 -35 -5 -3 -11 -20 -14 -38 -3
-18 -10 -51 -15 -73 -22 -91 -56 -268 -67 -350 -25 -181 -35 -517 -21 -720 14
-207 67 -506 126 -710 7 -22 14 -55 17 -73 3 -18 9 -35 14 -38 5 -3 9 -14 9
-25 0 -10 4 -27 9 -37 5 -9 28 -66 51 -127 92 -243 260 -568 359 -697 12 -14
21 -30 21 -36 0 -5 9 -17 20 -27 11 -10 20 -22 20 -26 0 -5 15 -29 34 -54 223
-292 456 -526 736 -741 68 -53 246 -174 254 -174 3 0 24 -13 48 -29 79 -53
256 -145 408 -213 25 -11 62 -29 83 -39 22 -11 47 -19 57 -19 11 0 22 -5 25
-10 3 -6 16 -10 29 -10 12 0 26 -4 32 -8 9 -9 242 -84 319 -103 22 -6 54 -15
71 -20 17 -5 44 -9 60 -9 17 0 34 -4 40 -9 5 -5 32 -12 59 -15 28 -3 82 -10
120 -16 181 -27 289 -34 535 -34 245 0 352 7 535 34 39 6 93 13 120 16 28 3
54 10 60 15 5 5 26 9 46 9 21 0 41 4 44 10 3 5 19 10 35 10 16 0 39 4 52 9 13
5 43 15 68 21 62 18 171 51 195 60 11 5 36 13 55 20 19 7 46 17 60 22 14 6 34
14 45 18 44 16 77 31 240 111 94 45 199 100 234 121 34 21 66 38 70 38 5 0 16
9 26 20 10 11 22 20 27 20 17 0 133 84 378 272 62 48 390 376 438 438 189 247
272 361 272 378 0 5 7 16 16 23 9 7 20 22 25 34 5 11 22 43 39 70 28 47 192
374 211 423 5 12 13 32 18 45 22 55 45 119 77 216 19 59 38 120 44 137 5 17
10 40 10 52 0 11 5 24 10 27 6 3 10 21 10 39 0 17 4 36 9 42 5 5 11 27 15 49
3 22 10 67 16 100 19 108 30 189 36 268 4 42 10 77 15 77 5 0 9 137 9 315 0
185 -4 315 -9 315 -5 0 -12 30 -15 68 -6 74 -19 174 -36 267 -6 33 -13 78 -16
100 -4 22 -10 44 -15 49 -5 6 -9 22 -9 38 0 15 -4 37 -9 50 -5 13 -19 57 -31
98 -33 113 -43 144 -52 154 -4 6 -8 20 -8 32 0 13 -4 26 -10 29 -5 3 -10 15
-10 26 0 10 -4 27 -9 37 -5 9 -13 28 -19 42 -71 175 -159 357 -226 465 -27 44
-57 95 -68 114 -31 54 -101 156 -110 159 -4 2 -8 8 -8 13 0 11 -80 117 -154
204 -28 33 -62 73 -76 90 -62 74 -234 245 -331 329 -130 112 -332 266 -348
266 -4 0 -16 9 -26 20 -10 11 -23 20 -30 20 -6 0 -21 9 -34 21 -17 16 -19 24
-11 34 8 9 11 72 9 194 -1 100 1 184 4 188 4 3 7 565 7 1248 l0 1242 -25 11
c-14 7 -34 12 -45 12 -10 0 -22 5 -25 10 -3 6 -17 10 -30 10 -13 0 -27 5 -30
10 -3 6 -17 10 -30 10 -13 0 -27 5 -30 10 -3 6 -17 10 -30 10 -13 0 -27 5 -30
10 -3 6 -15 10 -26 10 -10 0 -27 4 -37 9 -18 9 -58 26 -102 44 -14 5 -33 13
-42 18 -10 5 -27 9 -38 9 -11 0 -20 5 -20 10 0 6 -11 10 -24 10 -14 0 -28 5
-31 10 -3 6 -17 10 -30 10 -13 0 -27 5 -30 10 -3 6 -15 10 -26 10 -10 0 -19 5
-19 10 0 6 -9 10 -20 10 -11 0 -28 4 -38 9 -9 5 -30 14 -47 21 -16 7 -38 16
-47 21 -10 5 -25 9 -33 9 -8 0 -15 5 -15 10 0 6 -11 10 -24 10 -14 0 -28 5
-31 10 -3 6 -15 10 -26 10 -10 0 -19 5 -19 10 0 6 -9 10 -20 10 -11 0 -28 4
-38 9 -20 10 -68 30 -97 41 -11 4 -40 17 -63 29 -24 11 -52 21 -63 21 -10 0
-19 5 -19 10 0 6 -9 10 -20 10 -11 0 -20 5 -20 10 0 6 -11 10 -24 10 -36 0
-40 15 -8 31 86 44 162 103 162 126 0 7 -9 33 -20 58 -11 25 -29 65 -40 90
-11 25 -20 48 -20 53 0 5 -9 27 -20 50 -11 22 -20 45 -20 50 0 5 -6 22 -14 38
-8 16 -21 47 -31 69 -9 22 -25 57 -36 78 -10 22 -19 45 -19 53 0 7 -8 28 -18
46 -10 18 -24 65 -31 103 -9 46 -23 82 -41 105 -15 19 -34 49 -43 66 -18 36
-38 47 -71 38 -16 -4 -50 8 -102 34 -44 22 -144 71 -224 110 -80 38 -293 143
-475 232 -181 89 -402 197 -490 240 -572 279 -704 344 -740 363 -50 26 -58 30
-121 59 -181 82 -744 365 -744 373 0 6 -12 25 -27 42 l-28 31 -165 -9 c-91 -4
-239 -13 -330 -19 -91 -5 -226 -13 -300 -16 -153 -7 -174 -15 -189 -71 -25
-88 -5 -300 34 -359 l17 -26 156 6 c86 3 234 10 327 16 94 5 234 12 313 16
l143 6 202 -100 c111 -55 267 -131 347 -170 353 -171 501 -245 506 -254 5 -8
-84 -97 -234 -233 -30 -27 -84 -76 -118 -107 -35 -32 -65 -58 -67 -58 -2 0
-48 23 -102 50 -54 28 -104 50 -112 50 -7 0 -13 5 -13 10 0 6 -6 10 -13 10 -8
0 -58 23 -112 50 -54 28 -104 50 -112 50 -7 0 -13 5 -13 10 0 6 -9 10 -20 10
-11 0 -20 5 -20 10 0 6 -9 10 -20 10 -11 0 -20 5 -20 10 0 6 -9 10 -20 10 -11
0 -20 5 -20 10 0 6 -7 10 -15 10 -8 0 -23 4 -33 9 -9 5 -44 22 -77 38 -33 17
-78 39 -100 50 -147 75 -332 163 -342 163 -7 0 -13 5 -13 10 0 6 -9 10 -20 10
-11 0 -20 5 -20 10 0 6 -9 10 -20 10 -11 0 -20 5 -20 10 0 6 -9 10 -20 10 -11
0 -20 3 -20 8 0 8 -49 32 -67 32 -7 0 -13 5 -13 10 0 6 -9 10 -20 10 -11 0
-20 5 -20 10 0 6 -9 10 -20 10 -11 0 -20 5 -20 10 0 6 -9 10 -20 10 -11 0 -20
5 -20 10 0 6 -9 10 -20 10 -11 0 -20 5 -20 10 0 6 -9 10 -20 10 -11 0 -20 5
-20 10 0 6 -9 10 -20 10 -11 0 -20 5 -20 10 0 6 -9 10 -20 10 -11 0 -20 5 -20
10 0 6 -9 10 -20 10 -11 0 -20 5 -20 10 0 6 -9 10 -20 10 -11 0 -20 5 -20 10
0 6 -9 10 -20 10 -11 0 -20 5 -20 10 0 6 -9 10 -20 10 -11 0 -20 5 -20 10 0 6
-9 10 -20 10 -11 0 -20 5 -20 10 0 6 -9 10 -20 10 -11 0 -20 5 -20 10 0 6 -9
10 -20 10 -11 0 -20 5 -20 10 0 6 -9 10 -20 10 -11 0 -20 5 -20 10 0 6 -9 10
-20 10 -11 0 -20 5 -20 10 0 6 -9 10 -20 10 -11 0 -20 5 -20 10 0 6 -9 10 -20
10 -11 0 -20 5 -20 10 0 6 -9 10 -20 10 -11 0 -20 5 -20 10 0 6 -9 10 -20 10
-11 0 -20 5 -20 10 0 6 -9 10 -20 10 -11 0 -20 5 -20 10 0 6 -9 10 -20 10 -11
0 -20 3 -20 8 0 8 -49 32 -67 32 -7 0 -13 5 -13 10 0 6 -9 10 -20 10 -11 0
-20 3 -20 8 0 8 -48 32 -66 32 -7 0 -14 4 -16 8 -2 4 -73 43 -158 85 -85 43
-175 89 -200 101 -25 13 -72 37 -105 53 -100 50 -150 78 -153 86 -2 4 -12 7
-23 7 -10 0 -19 5 -19 10 0 6 -9 10 -20 10 -11 0 -20 5 -20 10 0 6 -9 10 -19
10 -11 0 -21 3 -23 8 -3 6 -72 44 -155 86 -13 6 -23 14 -23 19 0 4 -9 7 -20 7
-11 0 -20 4 -20 9 0 5 -8 11 -17 14 -18 6 -73 37 -83 47 -3 3 -18 12 -35 20
-16 8 -48 26 -70 40 -22 14 -52 32 -67 39 -16 8 -28 18 -28 23 0 4 -7 8 -15 8
-9 0 -25 9 -37 20 -12 11 -28 20 -35 20 -7 0 -13 5 -13 10 0 6 -6 10 -13 10
-7 0 -23 9 -35 20 -12 11 -25 20 -30 20 -4 0 -17 8 -28 18 -19 16 -31 23 -86
55 -13 6 -25 15 -28 18 -3 3 -34 25 -70 49 -36 24 -66 47 -68 52 -2 4 -9 8
-15 8 -7 0 -28 14 -47 30 -19 16 -38 30 -43 30 -4 0 -21 14 -39 30 -17 17 -36
30 -42 30 -6 0 -18 9 -26 20 -8 11 -20 20 -26 20 -6 0 -25 14 -42 30 -18 17
-36 30 -40 30 -5 0 -22 12 -38 28 -16 15 -45 38 -64 52 -19 13 -42 32 -51 42
-9 10 -20 18 -25 18 -5 0 -27 17 -49 38 -22 20 -58 50 -79 66 -20 15 -53 43
-71 62 -19 19 -38 34 -42 34 -5 0 -40 30 -79 68 -38 37 -86 79 -105 94 -20 14
-83 73 -140 130 -58 56 -130 124 -160 149 -30 26 -187 179 -350 340 -162 162
-320 315 -350 340 -30 26 -79 71 -109 100 -31 30 -73 67 -93 82 -21 16 -48 38
-60 50 -12 12 -38 34 -57 48 -19 15 -46 37 -60 49 -14 12 -37 29 -52 38 -16 9
-28 20 -28 24 0 4 -6 8 -13 8 -7 0 -22 8 -33 18 -29 27 -105 77 -141 93 -18 8
-33 17 -33 21 0 5 -11 8 -24 8 -14 0 -28 5 -31 10 -3 6 -17 10 -30 10 -13 0
-27 5 -30 10 -3 6 -19 10 -36 10 -16 0 -29 5 -29 10 0 6 -18 10 -39 10 -22 0
-43 5 -46 10 -3 6 -28 10 -54 10 -26 0 -51 4 -56 9 -6 5 -48 13 -95 16 -147
12 -5780 16 -5780 5z m5260 -917 c71 -37 265 -228 357 -353 75 -102 253 -366
253 -375 0 -4 14 -26 30 -50 16 -24 30 -47 30 -50 0 -4 8 -19 19 -33 10 -15
36 -61 58 -102 22 -41 57 -104 77 -140 69 -125 248 -494 319 -660 8 -19 26
-60 39 -90 14 -30 35 -82 47 -115 13 -33 28 -71 33 -85 6 -14 14 -34 18 -45 4
-11 12 -31 18 -45 21 -52 52 -137 73 -205 12 -38 25 -78 30 -87 5 -10 9 -29 9
-42 0 -14 5 -28 10 -31 6 -3 10 -19 10 -35 0 -16 5 -32 10 -35 6 -3 10 -19 10
-35 0 -16 4 -31 9 -34 5 -3 11 -23 14 -43 3 -21 12 -74 21 -118 12 -63 16
-154 16 -435 l0 -356 -33 -12 c-18 -7 -52 -12 -75 -12 -22 0 -44 -4 -47 -10
-3 -5 -28 -10 -56 -10 -27 0 -49 -4 -49 -10 0 -5 -20 -10 -44 -10 -25 0 -48
-4 -51 -10 -3 -5 -22 -10 -41 -10 -19 0 -34 -4 -34 -10 0 -5 -13 -10 -29 -10
-17 0 -33 -4 -36 -10 -3 -5 -15 -10 -26 -10 -10 0 -27 -4 -37 -9 -9 -5 -30
-14 -47 -21 -16 -7 -38 -16 -47 -21 -10 -5 -25 -9 -33 -9 -8 0 -15 -4 -15 -10
0 -5 -9 -10 -20 -10 -11 0 -20 -4 -20 -10 0 -5 -9 -10 -20 -10 -11 0 -20 -4
-20 -10 0 -5 -9 -10 -20 -10 -11 0 -20 -4 -20 -10 0 -5 -6 -10 -13 -10 -7 0
-23 -9 -35 -20 -12 -11 -26 -20 -32 -20 -5 0 -10 -4 -10 -10 0 -5 -5 -10 -11
-10 -6 0 -43 -33 -82 -74 -72 -73 -117 -141 -117 -176 0 -11 -4 -22 -10 -25
-5 -3 -10 -31 -10 -61 0 -30 5 -54 10 -54 6 0 10 -8 10 -18 0 -22 22 -72 33
-72 4 0 7 -5 7 -11 0 -15 110 -119 126 -119 7 0 14 -3 16 -7 4 -11 87 -53 104
-53 8 0 14 -4 14 -10 0 -5 9 -10 19 -10 11 0 23 -4 26 -10 3 -5 15 -10 26 -10
10 0 27 -4 37 -9 9 -5 39 -15 65 -23 l48 -14 -73 -33 c-40 -18 -81 -37 -90
-42 -10 -5 -27 -9 -37 -9 -11 0 -22 -4 -25 -9 -3 -5 -25 -12 -48 -16 -76 -12
-6067 -25 -6128 -13 -241 46 -458 188 -623 406 -110 147 -217 372 -248 522 -5
25 -16 74 -25 110 -25 98 -32 899 -10 1009 9 42 21 101 27 131 35 170 157 538
254 765 102 240 146 335 245 530 130 258 272 509 379 670 54 83 206 292 249
345 124 150 279 291 364 330 43 20 60 20 2434 16 l2390 -5 54 -28z m3800
-2883 c57 -34 94 -56 158 -91 20 -12 42 -25 47 -29 6 -5 35 -22 65 -38 30 -16
73 -39 95 -52 22 -13 58 -33 80 -44 22 -12 42 -23 45 -26 3 -3 19 -12 35 -21
17 -9 55 -30 85 -47 81 -44 184 -99 280 -149 47 -25 115 -61 153 -81 l67 -36
0 -761 0 -762 -47 -7 c-46 -7 -363 -20 -873 -36 -135 -4 -259 -11 -276 -15
l-32 -7 -6 809 c-3 444 -9 958 -12 1141 l-6 334 43 -25 c24 -13 69 -39 99 -57z
m4865 -559 c55 -27 258 -126 450 -221 193 -95 406 -199 475 -232 69 -33 131
-63 138 -66 13 -7 31 -36 50 -82 5 -14 17 -41 25 -60 9 -19 25 -60 37 -90 12
-30 28 -71 37 -90 18 -42 33 -77 44 -107 17 -43 27 -68 47 -113 34 -79 46
-119 38 -127 -5 -5 -11 -2 -13 5 -3 6 -15 12 -28 12 -13 0 -27 5 -30 10 -3 6
-15 10 -26 10 -10 0 -19 5 -19 10 0 6 -7 10 -15 10 -8 0 -23 4 -33 9 -74 37
-106 51 -118 51 -8 0 -14 5 -14 10 0 6 -9 10 -20 10 -11 0 -20 4 -20 8 0 5
-22 15 -50 22 -27 7 -50 17 -50 22 0 4 -9 8 -20 8 -11 0 -20 5 -20 10 0 6 -9
10 -20 10 -11 0 -35 9 -55 20 -20 11 -42 20 -50 20 -8 0 -15 5 -15 10 0 6 -6
10 -14 10 -8 0 -31 9 -53 20 -73 37 -127 60 -140 60 -7 0 -13 5 -13 10 0 6 -7
10 -15 10 -8 0 -23 4 -33 9 -74 37 -106 51 -118 51 -8 0 -14 5 -14 10 0 6 -9
10 -20 10 -11 0 -20 5 -20 10 0 6 -9 10 -20 10 -11 0 -20 5 -20 10 0 6 -7 10
-15 10 -8 0 -24 5 -35 10 -11 6 -29 15 -40 20 -11 6 -27 10 -35 10 -8 0 -15 5
-15 10 0 6 -6 10 -12 10 -11 0 -70 26 -221 101 -22 11 -45 19 -53 19 -8 0 -14
5 -14 10 0 6 -6 10 -14 10 -8 0 -31 8 -53 19 -151 75 -210 101 -220 101 -7 0
-13 5 -13 10 0 6 -9 10 -20 10 -36 0 -21 27 53 91 39 35 110 100 157 144 154
147 175 165 190 165 8 0 60 -22 115 -49z m-3599 -132 c44 -23 113 -59 154 -79
130 -65 598 -290 665 -320 126 -56 145 -66 150 -80 4 -8 9 -220 12 -472 l6
-456 -74 -6 c-41 -4 -198 -11 -349 -16 -151 -5 -356 -12 -456 -15 l-181 -7 -6
348 c-7 369 -9 1144 -3 1144 2 0 39 -19 82 -41z m1164 -556 c30 -14 64 -29 75
-33 11 -4 41 -17 68 -29 115 -51 145 -64 187 -83 25 -11 54 -24 65 -28 28 -10
63 -25 117 -49 26 -12 50 -21 53 -21 3 0 27 -9 53 -21 57 -26 82 -35 105 -43
14 -4 17 -17 17 -68 0 -98 11 -421 14 -440 3 -15 -20 -17 -258 -22 -143 -4
-339 -9 -433 -12 l-173 -5 0 450 0 451 28 -11 c15 -6 52 -22 82 -36z m885
-373 c6 -4 48 -21 95 -39 47 -18 96 -38 110 -43 14 -6 36 -15 50 -21 14 -5 33
-13 42 -18 10 -5 25 -9 33 -9 8 0 23 -4 33 -9 23 -12 56 -25 127 -51 71 -26
104 -39 127 -51 10 -5 24 -9 32 -9 10 0 14 -20 15 -85 l2 -85 -66 0 c-37 0
-74 -4 -84 -9 -10 -6 -141 -11 -293 -13 l-275 -3 -6 224 c-3 123 -4 228 -2
232 5 8 43 1 60 -11z m802 -302 c41 -19 53 -33 53 -65 0 -16 5 -34 12 -41 9
-9 -3 -12 -55 -12 l-67 0 0 65 c0 71 5 76 57 53z m593 -201 c52 -18 101 -36
108 -40 9 -6 12 -96 10 -400 -1 -216 -3 -375 -5 -354 -2 20 -8 37 -14 37 -5 0
-9 18 -9 40 0 22 -4 40 -10 40 -5 0 -10 18 -10 39 0 22 -4 43 -10 46 -5 3 -10
19 -10 35 0 16 -4 32 -10 35 -5 3 -10 21 -10 40 0 19 -4 37 -10 40 -5 3 -10
19 -10 35 0 16 -4 32 -10 35 -5 3 -10 22 -10 41 0 19 -4 34 -10 34 -5 0 -10
15 -10 34 0 19 -4 38 -10 41 -5 3 -10 21 -10 40 0 19 -4 37 -10 40 -5 3 -10
21 -10 40 0 19 -4 37 -10 40 -5 3 -10 21 -10 39 0 17 -5 37 -12 44 -18 18 -3
15 102 -21z m242 -76 c13 -5 43 -14 68 -21 25 -7 53 -16 62 -21 10 -5 27 -9
38 -9 11 0 28 -4 38 -9 9 -5 37 -15 62 -21 69 -19 107 -30 208 -60 l42 -13 1
-256 c0 -141 2 -263 3 -271 2 -8 7 -101 11 -206 l7 -192 -39 -6 c-21 -4 -55
-9 -76 -12 -20 -4 -40 -10 -43 -15 -3 -5 -14 -9 -25 -9 -10 0 -19 -4 -19 -10
0 -5 -11 -10 -25 -10 -14 0 -25 -5 -25 -11 0 -14 -229 -6 -281 10 l-36 11 -6
238 c-4 130 -10 387 -14 570 -7 363 -9 346 49 323z m668 -191 c19 -5 53 -13
75 -19 22 -5 94 -24 160 -41 66 -18 132 -34 146 -37 l26 -5 6 -355 c4 -196 10
-400 14 -454 l6 -99 -116 0 c-87 0 -117 3 -117 13 0 19 -42 63 -83 86 -28 16
-55 21 -107 21 l-70 0 0 193 c0 105 -2 248 -5 317 -3 69 -7 187 -10 264 l-5
138 23 -7 c12 -3 38 -10 57 -15z m-1327 -67 c3 -16 11 -46 17 -68 7 -22 14
-55 17 -73 3 -18 9 -35 14 -38 5 -3 9 -21 9 -40 0 -19 5 -34 10 -34 6 0 10
-24 10 -53 0 -41 -4 -56 -20 -67 -11 -8 -20 -19 -20 -25 0 -5 -14 -26 -30 -45
-16 -19 -30 -38 -30 -43 0 -4 -13 -21 -30 -39 -16 -17 -30 -37 -30 -44 0 -8
-4 -14 -8 -14 -4 0 -15 -12 -24 -27 -9 -16 -28 -41 -42 -58 -14 -16 -26 -34
-26 -38 0 -12 -30 -40 -36 -34 -3 3 -8 177 -11 386 l-6 381 115 0 116 0 5 -27z
m-319 11 c14 -5 16 -51 16 -411 l0 -406 -67 6 c-66 6 -176 18 -338 38 -44 5
-116 14 -160 19 -164 20 -151 13 -159 82 -3 34 -6 193 -6 354 l0 292 83 7 c45
3 201 9 347 13 146 4 266 9 267 10 1 1 8 -1 17 -4z m-784 -373 l0 -348 -52 4
c-29 2 -66 6 -83 9 -16 2 -66 9 -110 15 -85 11 -157 21 -270 38 -150 22 -212
31 -267 39 -32 5 -61 11 -64 15 -4 3 -8 109 -11 234 -2 125 -5 249 -7 276 l-3
47 241 1 c133 0 261 4 286 8 25 5 111 9 193 10 l147 1 0 -349z m-938 62 c2
-142 1 -264 -1 -271 -2 -8 -10 -10 -20 -6 -9 4 -45 11 -81 16 -97 14 -206 32
-345 57 -27 5 -77 14 -110 20 -33 6 -80 15 -105 20 -146 29 -188 37 -310 60
-85 15 -80 5 -80 177 l0 154 245 0 c154 0 245 4 245 10 0 6 101 11 268 13 147
1 272 3 279 5 9 1 13 -60 15 -255z m3894 238 c5 -5 27 -11 49 -14 56 -8 127
-23 148 -32 16 -7 17 -36 17 -419 0 -226 -4 -417 -8 -424 -7 -10 -34 -11 -119
-6 l-110 7 -7 296 c-3 163 -9 365 -12 449 -6 146 -6 152 13 152 10 0 23 -4 29
-9z m-5023 -78 c4 -38 7 -103 7 -146 l0 -79 -47 5 c-45 5 -79 12 -178 35 -22
6 -65 15 -95 22 -57 12 -100 23 -172 41 -57 14 -126 29 -163 35 -16 3 -39 9
-50 14 -11 5 -33 11 -50 14 -31 5 -60 12 -180 42 -152 39 -132 41 605 59 157
4 289 11 295 16 18 17 22 8 28 -58z m6323 -2902 c5 -5 45 -29 89 -52 44 -23
120 -68 169 -101 49 -32 90 -58 92 -58 7 0 177 -132 255 -198 140 -117 459
-452 459 -480 0 -5 7 -16 16 -23 9 -8 26 -28 38 -45 11 -17 40 -58 63 -91 23
-33 50 -75 61 -94 11 -19 41 -70 69 -114 27 -44 63 -111 81 -150 18 -38 42
-87 53 -108 10 -22 19 -43 19 -47 0 -5 -17 -16 -37 -25 -21 -9 -55 -25 -76
-36 -22 -10 -45 -19 -53 -19 -7 0 -29 -9 -49 -20 -20 -11 -42 -20 -49 -20 -8
0 -31 -9 -53 -19 -21 -11 -56 -27 -78 -36 -22 -10 -53 -23 -69 -31 -16 -8 -33
-14 -38 -14 -4 0 -30 -9 -56 -21 -26 -12 -56 -25 -67 -29 -11 -4 -41 -17 -67
-29 -26 -12 -50 -21 -53 -21 -3 0 -27 -9 -53 -21 -26 -12 -56 -25 -67 -29 -11
-4 -41 -17 -67 -29 -26 -12 -52 -21 -58 -21 -6 0 -18 -4 -28 -10 -9 -5 -66
-30 -127 -56 -60 -25 -123 -52 -139 -60 -16 -8 -33 -14 -38 -14 -4 0 -30 -9
-56 -21 -26 -12 -56 -25 -67 -29 -11 -4 -41 -17 -67 -29 -26 -12 -50 -21 -53
-21 -3 0 -27 -9 -53 -21 -46 -21 -70 -31 -114 -48 -30 -11 -65 -26 -108 -44
-19 -9 -55 -23 -80 -33 -25 -10 -60 -26 -78 -36 -18 -10 -38 -18 -45 -18 -7 0
-32 -9 -55 -20 -22 -11 -45 -20 -51 -20 -5 0 -29 -10 -53 -21 -23 -12 -52 -25
-63 -29 -11 -5 -41 -17 -67 -29 -26 -12 -50 -21 -53 -21 -3 0 -27 -9 -53 -21
-95 -42 -132 -53 -132 -39 0 5 -27 36 -60 69 -47 48 -58 65 -51 79 37 73 51
106 51 118 0 7 9 29 20 49 11 20 20 40 20 45 0 6 10 32 21 58 12 26 28 62 35
80 8 17 21 49 30 70 9 20 19 46 24 57 4 11 12 32 19 48 6 15 15 37 20 50 9 23
26 62 56 132 9 22 25 57 36 78 10 22 19 45 19 53 0 7 9 29 20 49 11 20 20 42
20 49 0 8 9 31 19 53 25 51 61 131 61 138 0 3 9 27 21 53 12 26 24 56 29 67
12 31 26 66 49 117 12 26 21 50 21 53 0 3 10 27 21 53 12 26 28 63 36 82 8 19
21 48 29 64 8 16 14 33 14 38 0 4 9 30 21 56 12 26 25 56 29 67 9 22 28 69 55
130 18 42 29 70 44 108 4 12 18 42 30 65 11 24 21 48 21 53 0 5 10 31 21 57
21 46 32 72 65 150 29 69 42 87 71 96 15 5 37 12 48 16 86 31 106 35 121 21z
m-384 -128 c-5 -10 -14 -29 -20 -43 -5 -14 -19 -46 -31 -72 -12 -26 -21 -50
-21 -53 0 -3 -9 -27 -21 -53 -12 -26 -24 -56 -29 -67 -4 -11 -17 -40 -29 -63
-11 -24 -21 -50 -21 -57 0 -7 -9 -30 -19 -52 -11 -21 -26 -55 -35 -75 -9 -21
-23 -55 -32 -75 -25 -60 -47 -114 -64 -158 -5 -11 -17 -41 -29 -67 -12 -26
-21 -50 -21 -53 0 -3 -10 -27 -21 -53 -12 -26 -28 -63 -36 -82 -8 -19 -21 -48
-29 -64 -8 -16 -14 -33 -14 -38 0 -4 -9 -30 -21 -56 -12 -26 -25 -56 -29 -67
-9 -22 -28 -69 -55 -130 -18 -42 -29 -70 -44 -107 -4 -13 -18 -43 -30 -66 -11
-24 -21 -48 -21 -53 0 -5 -10 -31 -21 -57 -12 -26 -27 -60 -34 -77 -7 -16 -20
-48 -30 -70 -23 -54 -36 -86 -45 -110 -8 -23 -21 -53 -44 -107 -9 -21 -23 -55
-32 -75 -9 -21 -24 -55 -35 -76 -10 -22 -19 -48 -19 -59 0 -17 -3 -18 -15 -8
-8 7 -15 27 -15 44 0 18 -6 38 -12 44 -10 10 -14 214 -16 939 -2 877 -2 926
15 939 10 7 30 14 45 14 15 0 30 5 33 10 3 6 17 10 31 10 13 0 32 4 42 9 17 9
230 78 312 101 25 7 54 16 65 20 11 4 40 13 65 20 25 7 54 16 65 20 11 4 54
18 95 30 94 28 130 40 155 51 20 8 67 17 73 13 2 -1 -1 -10 -6 -21z m-1133
-930 c-1 -335 -4 -597 -6 -583 -2 14 -8 34 -13 45 -5 11 -16 49 -25 85 -9 36
-21 81 -26 100 -6 19 -15 52 -20 73 -5 20 -13 55 -19 77 -5 22 -14 58 -20 80
-5 22 -14 57 -19 78 -9 36 -24 93 -57 210 -9 31 -19 72 -21 90 -3 18 -9 35
-14 38 -5 3 -9 20 -9 39 0 19 -4 37 -10 40 -5 3 -10 21 -10 40 0 19 -4 37 -10
40 -14 9 -13 48 2 63 7 7 20 12 30 12 10 0 26 4 36 9 9 5 51 19 92 31 41 12
84 26 95 30 11 5 21 9 23 9 1 1 1 -272 1 -606z m-659 368 c0 -11 5 -23 10 -26
6 -3 10 -21 10 -40 0 -19 4 -36 9 -39 5 -3 11 -20 14 -38 3 -18 10 -51 15 -73
43 -173 64 -252 72 -267 6 -10 10 -28 9 -40 0 -14 -2 -17 -6 -8 -2 8 -14 35
-25 60 -11 25 -24 54 -28 65 -17 45 -41 104 -69 167 -12 26 -21 50 -21 53 0 3
-9 27 -21 53 -12 26 -26 58 -31 72 -6 14 -14 32 -18 40 -9 19 17 39 53 40 20
0 27 -5 27 -19z m-199 -88 c25 -56 39 -90 49 -118 16 -43 41 -103 69 -167 12
-26 21 -50 21 -53 0 -2 14 -34 30 -70 17 -36 30 -69 30 -73 0 -5 9 -27 20 -50
11 -22 20 -46 20 -52 0 -5 4 -18 10 -28 17 -32 50 -106 50 -114 0 -9 31 -82
61 -141 10 -22 19 -44 19 -51 0 -7 9 -31 20 -54 11 -22 20 -45 20 -50 0 -5 6
-22 14 -38 8 -16 21 -47 31 -69 9 -22 25 -57 36 -78 10 -22 19 -45 19 -53 0
-7 9 -29 20 -49 11 -20 20 -42 20 -49 0 -8 10 -34 21 -58 30 -60 35 -74 54
-148 24 -96 32 -123 40 -145 4 -11 -333 320 -749 735 -416 415 -755 759 -753
764 2 5 39 20 82 33 44 14 88 29 97 34 10 5 29 9 42 9 14 0 28 5 31 10 3 6 17
10 30 10 13 0 27 5 30 10 3 6 19 10 35 10 16 0 32 5 35 10 3 6 19 10 34 10 15
0 31 4 37 8 5 5 43 19 84 31 120 36 144 45 155 53 5 4 21 8 36 8 15 0 31 5 34
10 16 26 45 9 66 -37z m-193 -1046 c501 -501 789 -796 783 -802 -24 -25 -51
-89 -51 -120 l0 -35 -1395 0 c-1322 0 -1395 1 -1395 18 1 93 37 398 61 527 6
28 12 66 15 85 3 19 9 44 14 55 5 11 11 34 13 50 3 17 11 48 17 70 6 22 14 51
16 65 3 14 9 34 14 45 4 11 13 36 20 55 15 42 29 79 41 102 5 10 9 22 9 28 0
6 9 32 21 58 12 26 25 56 29 67 4 11 34 73 66 139 l59 119 80 24 c44 14 88 29
97 34 10 5 27 9 37 9 11 0 23 5 26 10 3 6 19 10 35 10 16 0 32 5 35 10 3 6 17
10 31 10 13 0 32 4 42 9 9 5 51 19 92 31 41 12 84 26 95 30 11 4 54 18 95 30
41 12 84 26 95 30 48 18 81 28 95 29 8 1 372 -356 808 -792z m549 551 c-3 -8
-6 -5 -6 6 -1 11 2 17 5 13 3 -3 4 -12 1 -19z m3563 -490 c12 -40 26 -82 30
-93 12 -31 48 -152 66 -225 42 -171 70 -373 80 -577 l6 -123 -1386 0 c-1225 0
-1386 2 -1386 15 0 8 8 15 18 15 10 0 22 4 28 9 5 4 41 20 79 35 39 15 86 35
105 43 36 15 62 26 103 42 35 13 91 37 182 76 22 9 50 21 63 26 12 5 32 13 45
18 12 5 43 18 69 30 26 12 52 21 58 21 6 0 18 4 28 10 9 5 49 23 87 40 39 17
78 35 87 40 10 6 24 10 32 10 8 0 34 10 58 21 23 12 52 25 63 29 27 10 61 24
117 49 26 12 50 21 53 21 3 0 27 9 53 21 26 12 57 25 70 30 12 5 34 14 50 20
15 7 36 15 47 19 11 5 41 17 67 29 26 12 50 21 53 21 3 0 27 10 53 21 117 53
132 59 142 59 5 0 25 9 45 20 20 11 42 20 49 20 8 0 31 9 53 19 21 11 56 27
78 36 22 10 53 23 69 31 16 8 33 14 38 14 4 0 30 9 56 21 51 23 86 37 117 49
11 5 41 17 67 29 26 12 50 21 53 21 9 0 115 48 131 59 0 1 11 -32 24 -71z
m-8000 -238 c0 -15 -113 -160 -125 -160 -6 0 -26 12 -45 28 -19 15 -48 34 -63
42 l-29 14 34 14 c18 8 41 18 50 23 10 5 25 9 35 9 19 0 80 18 103 31 21 11
40 11 40 -1z m-5900 -464 c0 -13 -13 -50 -30 -81 -16 -31 -30 -65 -30 -74 0
-9 -4 -21 -9 -27 -6 -5 -11 -36 -13 -69 l-3 -60 -1125 -2 c-619 -1 -1120 0
-1115 2 6 1 30 8 55 15 25 7 54 16 65 20 11 4 54 18 95 30 41 12 83 26 92 31
10 5 27 9 37 9 11 0 23 5 26 10 3 6 19 10 35 10 16 0 32 5 35 10 3 6 19 10 35
10 16 0 32 5 35 10 3 6 15 10 26 10 10 0 27 4 37 9 9 5 51 19 92 31 178 54
206 63 222 71 10 5 27 9 37 9 11 0 23 5 26 10 3 6 20 10 36 10 17 0 32 6 35
15 5 13 87 15 655 15 l649 0 0 -24z m-62 -507 c12 -22 22 -43 22 -45 0 -5 -81
-41 -162 -73 -35 -13 -68 -27 -120 -50 -26 -12 -50 -21 -53 -21 -3 0 -25 -9
-50 -20 -25 -11 -65 -29 -90 -40 -25 -11 -48 -20 -53 -20 -5 0 -27 -9 -50 -20
-22 -11 -45 -20 -50 -20 -5 0 -22 -6 -38 -14 -16 -8 -45 -21 -64 -29 -19 -8
-56 -24 -82 -36 -26 -11 -52 -21 -58 -21 -5 0 -25 -9 -45 -20 -20 -11 -42 -20
-49 -20 -8 0 -31 -9 -53 -19 -48 -24 -92 -43 -163 -71 -30 -12 -71 -28 -90
-37 -19 -8 -45 -19 -57 -24 -22 -9 -48 -19 -95 -38 -13 -5 -44 -18 -70 -30
-26 -12 -50 -21 -53 -21 -3 0 -27 -9 -53 -21 -26 -12 -57 -25 -69 -30 -48 -19
-74 -29 -95 -38 -13 -5 -40 -16 -60 -25 -21 -9 -55 -23 -75 -32 -49 -21 -83
-35 -108 -44 -11 -5 -41 -17 -67 -29 -26 -12 -52 -21 -56 -21 -5 0 -22 -6 -38
-14 -16 -8 -47 -21 -69 -31 -22 -9 -55 -23 -73 -31 -45 -19 -62 -18 -62 5 0
11 -4 23 -10 26 -5 3 -10 15 -10 26 0 10 -4 27 -10 37 -10 18 -39 108 -60 182
-7 25 -16 55 -21 68 -5 13 -9 36 -9 52 0 16 -4 31 -9 34 -5 3 -11 23 -15 43
-3 21 -10 67 -16 103 -6 36 -15 99 -19 140 -5 41 -12 84 -15 95 -2 11 -7 68
-10 128 l-5 107 1268 0 1267 0 22 -41z m10537 17 c-69 -33 -110 -51 -175 -76
-30 -12 -71 -28 -90 -37 -42 -18 -77 -33 -107 -44 -39 -15 -67 -26 -105 -43
-21 -9 -53 -22 -70 -30 -18 -7 -54 -23 -80 -35 -26 -11 -51 -21 -56 -21 -5 0
-27 -9 -50 -20 -22 -11 -46 -20 -52 -20 -5 0 -18 -4 -28 -10 -9 -5 -48 -23
-87 -40 -38 -17 -78 -35 -87 -40 -10 -6 -22 -10 -28 -10 -6 0 -32 -9 -58 -21
-51 -23 -86 -37 -117 -49 -11 -5 -41 -17 -67 -29 -26 -12 -50 -21 -53 -21 -3
0 -27 -9 -53 -21 -26 -12 -57 -25 -69 -30 -13 -5 -33 -13 -45 -18 -13 -5 -39
-16 -58 -24 -19 -9 -60 -25 -90 -37 -71 -28 -115 -47 -163 -71 -22 -10 -45
-19 -52 -19 -7 0 -33 -10 -57 -21 -40 -20 -62 -30 -113 -49 -11 -5 -37 -15
-57 -24 -21 -9 -55 -23 -75 -32 -21 -9 -47 -19 -58 -24 -11 -4 -32 -12 -47
-19 -16 -6 -38 -15 -50 -20 -13 -5 -39 -16 -58 -24 -19 -9 -55 -23 -80 -33
-25 -9 -49 -21 -54 -26 -17 -14 -36 -9 -36 10 0 10 -4 22 -8 27 -5 6 -15 30
-22 55 -8 25 -16 50 -20 55 -4 6 -12 30 -19 55 -7 25 -17 53 -22 62 -5 10 -9
31 -9 47 0 17 -4 32 -9 35 -5 3 -11 23 -14 43 -3 21 -11 61 -17 88 -31 140
-56 308 -65 435 -3 52 -8 107 -11 123 l-6 27 1399 0 1398 0 -50 -24z m3601
-68 c-4 -51 -11 -131 -16 -178 -5 -47 -12 -110 -15 -140 -3 -30 -10 -64 -15
-75 -5 -11 -11 -36 -14 -55 -6 -45 -22 -115 -35 -162 -6 -21 -16 -55 -22 -75
-6 -21 -13 -50 -16 -66 -3 -15 -9 -30 -14 -33 -5 -3 -9 -16 -9 -29 0 -13 -4
-27 -10 -30 -5 -3 -10 -17 -10 -30 0 -13 -4 -27 -10 -30 -5 -3 -10 -13 -10
-21 0 -8 -9 -34 -20 -56 -11 -23 -20 -46 -20 -50 0 -15 -141 -298 -182 -367
-21 -34 -38 -66 -38 -70 0 -5 -9 -16 -20 -26 -11 -10 -20 -22 -20 -27 0 -21
-168 -250 -256 -348 -31 -36 -74 -84 -94 -107 l-37 -41 -984 984 -984 984 18
27 c10 16 27 47 38 71 l20 42 1391 0 1390 0 -6 -92z m-3432 -101 l58 -54 -22
-49 c-12 -27 -26 -58 -30 -69 -4 -11 -15 -37 -24 -57 -9 -21 -23 -55 -32 -75
-17 -40 -29 -69 -43 -105 -4 -13 -18 -43 -30 -66 -11 -24 -21 -48 -21 -53 0
-5 -10 -31 -21 -57 -12 -26 -28 -62 -35 -79 -8 -18 -21 -50 -30 -70 -9 -21
-20 -48 -25 -60 -5 -13 -13 -34 -19 -48 -5 -14 -14 -35 -19 -47 -9 -24 -26
-63 -56 -133 -9 -22 -25 -57 -36 -78 -10 -22 -19 -45 -19 -53 0 -7 -9 -29 -20
-49 -11 -20 -20 -40 -20 -45 0 -6 -10 -32 -21 -58 -12 -26 -28 -62 -35 -79 -8
-18 -21 -50 -30 -70 -23 -55 -36 -85 -44 -108 -10 -28 -24 -62 -49 -117 -12
-26 -21 -50 -21 -53 0 -2 -13 -33 -28 -67 -16 -35 -34 -79 -42 -98 -7 -19 -17
-39 -22 -44 -4 -6 -8 -16 -8 -23 0 -7 -9 -35 -21 -61 -12 -26 -25 -56 -29 -67
-4 -11 -15 -37 -24 -57 -9 -21 -23 -55 -32 -75 -9 -21 -19 -47 -24 -58 -19
-51 -29 -73 -49 -113 -11 -24 -21 -48 -21 -53 0 -5 -9 -28 -19 -52 -10 -23
-25 -57 -32 -74 -8 -18 -18 -33 -22 -33 -9 0 -96 38 -167 73 -37 19 -131 73
-225 130 -72 44 -225 150 -240 167 -10 11 -22 20 -27 20 -29 0 -421 374 -495
472 -15 20 -66 88 -113 150 -47 62 -97 131 -111 153 -75 118 -97 154 -119 200
-14 28 -27 52 -30 55 -3 3 -20 37 -39 75 -18 39 -37 77 -42 87 -10 20 2 31 56
49 22 7 55 22 73 31 18 10 39 18 47 18 9 0 23 4 33 10 9 5 49 23 87 40 39 17
78 35 87 40 10 6 22 10 28 10 6 0 32 9 58 21 26 12 57 25 70 30 12 5 32 13 45
18 12 5 39 16 60 25 20 9 54 23 75 32 38 17 66 28 105 43 30 11 65 26 107 44
19 9 60 25 90 37 71 28 115 47 163 71 22 10 45 19 52 19 7 0 33 10 57 21 23
12 52 25 63 29 11 5 41 17 67 29 26 12 50 21 53 21 3 0 27 9 53 21 26 12 56
24 67 29 11 4 32 12 48 19 15 6 37 15 50 20 12 5 43 18 69 30 26 12 50 21 53
21 2 0 34 14 70 30 36 17 69 30 73 30 5 0 27 9 50 20 22 11 45 20 50 20 5 0
22 6 38 14 16 8 45 21 64 29 19 8 56 24 82 36 26 11 50 21 53 21 3 0 27 9 53
21 26 12 56 24 67 29 38 14 80 32 95 41 32 17 58 7 114 -44z m-10543 -33 l24
-26 -922 -919 c-508 -505 -929 -919 -936 -919 -19 0 -119 111 -232 256 -62 80
-165 231 -165 242 0 5 -9 17 -20 27 -11 10 -20 22 -20 27 0 4 -17 36 -38 71
-49 80 -132 252 -132 272 0 8 7 15 15 15 8 0 23 4 33 9 16 8 36 17 95 40 12 5
43 18 69 30 26 12 50 21 53 21 7 0 87 36 138 61 22 10 44 19 51 19 7 0 31 9
54 20 22 11 45 20 50 20 5 0 22 6 38 14 16 8 47 21 69 31 22 9 57 25 78 36 22
10 45 19 53 19 7 0 29 9 49 20 20 11 42 20 49 20 8 0 31 9 53 19 48 24 92 43
163 71 30 12 71 28 90 37 46 20 81 34 105 43 28 10 62 24 117 49 26 12 50 21
53 21 3 0 27 9 53 21 55 25 89 39 117 49 23 8 53 21 108 44 20 9 52 22 70 30
17 7 53 23 79 35 26 11 52 21 58 21 5 0 25 9 45 20 20 11 42 20 49 20 7 0 26
6 42 14 16 8 45 21 64 29 19 8 56 24 82 36 26 11 53 21 60 22 7 0 27 9 43 19
42 26 68 24 96 -6z m12015 -995 l982 -982 -97 -84 c-129 -114 -356 -283 -379
-283 -5 0 -17 -9 -27 -20 -10 -11 -21 -20 -26 -20 -4 0 -36 -17 -70 -38 -35
-21 -122 -67 -192 -101 -122 -60 -129 -62 -142 -45 -8 11 -15 25 -15 32 0 7
-4 20 -9 30 -5 9 -13 28 -19 42 -5 14 -17 41 -25 60 -9 19 -23 55 -33 80 -9
25 -21 49 -26 54 -4 6 -8 16 -8 23 0 7 -9 35 -21 61 -23 51 -37 86 -49 117
-12 30 -41 97 -56 129 -8 16 -14 33 -14 38 0 4 -9 30 -21 56 -25 55 -39 89
-49 117 -10 28 -24 62 -49 117 -12 26 -21 50 -21 53 0 3 -9 27 -21 53 -23 52
-37 85 -50 120 -17 44 -27 68 -48 114 -12 26 -21 50 -21 53 0 3 -9 27 -21 53
-25 55 -39 89 -49 117 -10 28 -24 62 -49 117 -12 26 -21 52 -21 56 0 5 -6 22
-14 38 -8 16 -21 45 -29 64 -8 19 -24 56 -36 82 -11 26 -21 51 -21 56 0 5 -9
27 -20 50 -11 22 -20 45 -20 50 0 5 -6 22 -14 38 -8 16 -21 45 -29 64 -8 19
-24 56 -36 82 -11 26 -21 52 -21 58 0 5 -9 25 -20 45 -11 20 -20 42 -20 49 0
7 -6 26 -14 42 -44 92 -62 144 -49 144 4 0 450 -442 989 -981z m-1276 -465 l0
-1386 -112 6 c-251 14 -476 50 -663 106 -38 12 -83 25 -100 30 -31 8 -57 17
-90 30 -11 4 -39 13 -62 20 -35 11 -43 18 -43 37 0 13 4 31 9 41 5 9 16 34 25
55 41 96 49 115 67 150 10 22 19 43 19 48 0 6 9 29 20 51 11 23 20 45 20 50 0
5 10 30 21 56 39 88 91 208 110 260 17 44 27 68 48 114 12 26 21 50 21 53 0 2
14 34 30 70 17 36 30 68 30 70 0 3 9 27 21 53 12 26 24 56 29 67 17 44 39 98
64 158 9 20 23 54 32 75 9 20 24 54 35 75 10 22 19 45 19 53 0 7 9 29 20 49
11 20 20 40 20 45 0 6 10 32 21 58 12 26 28 62 35 80 8 17 21 49 30 70 9 20
19 46 24 57 4 11 13 34 20 50 7 17 16 39 20 50 5 11 15 37 24 58 9 20 23 54
32 75 9 20 24 54 35 75 10 22 19 45 19 53 0 7 9 29 20 49 11 20 20 42 20 49 0
8 9 31 19 53 30 59 61 132 61 141 0 8 21 32 27 32 2 0 3 -624 3 -1386z m172
1336 c6 -14 14 -34 18 -45 10 -28 24 -62 49 -117 12 -26 21 -50 21 -53 0 -3 9
-27 21 -53 27 -60 48 -112 69 -167 5 -11 15 -36 23 -55 20 -47 87 -210 97
-235 11 -30 26 -66 43 -105 9 -19 25 -60 37 -90 22 -57 33 -82 69 -162 11 -26
21 -51 21 -56 0 -5 9 -27 20 -50 11 -22 20 -45 20 -50 0 -5 6 -22 14 -38 8
-16 21 -47 31 -69 9 -22 25 -57 36 -78 10 -22 19 -44 19 -51 0 -7 9 -31 20
-54 11 -22 20 -46 20 -52 0 -5 4 -18 10 -28 17 -31 50 -106 50 -114 0 -8 54
-132 70 -160 6 -10 10 -24 10 -33 0 -8 9 -30 20 -50 11 -20 20 -42 20 -49 0
-8 9 -31 19 -53 11 -21 27 -56 36 -78 10 -22 23 -53 31 -69 8 -16 14 -33 14
-38 0 -4 9 -30 21 -56 12 -26 25 -57 30 -69 23 -59 32 -79 40 -95 5 -10 9 -23
9 -30 0 -15 -45 -38 -71 -38 -10 0 -21 -4 -24 -10 -3 -5 -17 -10 -30 -10 -13
0 -26 -4 -29 -9 -3 -4 -18 -11 -33 -15 -16 -3 -62 -15 -103 -27 -217 -61 -397
-90 -657 -105 l-113 -7 0 1380 c0 759 3 1383 7 1387 4 4 9 1 11 -6 2 -7 8 -24
14 -38z m-10635 -45 l102 -50 1 -1314 0 -1314 -107 7 c-98 6 -149 11 -341 32
-34 3 -65 10 -68 15 -3 5 -23 9 -45 9 -21 0 -47 4 -57 9 -9 5 -42 14 -72 21
-30 6 -66 15 -80 20 -14 4 -45 13 -70 20 -25 6 -53 16 -62 21 -10 5 -27 9 -37
9 -11 0 -23 5 -26 10 -3 6 -15 10 -26 10 -19 0 -28 4 -76 28 -13 7 -27 12 -33
12 -29 0 -330 150 -453 225 -54 33 -112 68 -128 78 -92 54 -429 326 -429 347
0 4 419 426 932 938 779 778 935 928 952 923 12 -3 67 -28 123 -56z m311 -134
c9 -5 24 -12 32 -14 17 -5 38 -44 70 -132 8 -23 21 -53 44 -107 9 -21 23 -55
32 -75 18 -43 32 -77 47 -113 5 -14 14 -36 20 -50 5 -14 13 -34 17 -45 5 -11
17 -41 29 -67 12 -26 21 -50 21 -53 0 -2 14 -34 30 -70 17 -36 30 -70 30 -75
0 -6 4 -18 9 -28 5 -9 13 -28 19 -42 5 -14 17 -41 25 -60 9 -19 25 -60 37 -90
22 -57 33 -82 69 -162 11 -26 21 -51 21 -56 0 -5 9 -27 20 -50 11 -22 20 -45
20 -50 0 -5 6 -22 14 -38 8 -16 21 -47 31 -69 9 -22 25 -57 36 -78 10 -22 19
-45 19 -53 0 -7 9 -29 20 -49 11 -20 20 -42 20 -49 0 -7 6 -26 14 -42 16 -34
31 -69 77 -179 18 -44 37 -84 41 -89 4 -6 8 -18 8 -28 0 -9 9 -33 20 -53 11
-20 20 -42 20 -50 0 -9 4 -23 10 -33 14 -25 66 -143 74 -169 6 -19 4 -23 -13
-23 -11 0 -23 -4 -26 -10 -3 -5 -17 -10 -30 -10 -13 0 -27 -4 -30 -10 -3 -5
-15 -10 -26 -10 -10 0 -27 -4 -37 -9 -22 -12 -130 -45 -202 -61 -30 -7 -64
-16 -75 -21 -11 -4 -38 -10 -60 -13 -22 -3 -69 -10 -105 -16 -84 -14 -218 -28
-347 -36 l-103 -6 0 1276 c0 1272 0 1276 20 1276 11 0 28 -4 38 -9z m297 -101
c3 -5 19 -10 35 -10 16 0 32 -4 35 -10 3 -5 19 -10 35 -10 16 0 32 -4 35 -10
3 -5 19 -10 35 -10 16 0 32 -4 35 -10 3 -5 14 -10 23 -10 9 0 356 -339 770
-753 l754 -754 -48 -39 c-26 -21 -68 -57 -93 -80 -82 -72 -377 -284 -397 -284
-3 0 -19 -9 -35 -21 -16 -11 -62 -37 -102 -58 -39 -21 -81 -42 -92 -48 -55
-30 -156 -76 -158 -72 -18 31 -27 51 -27 59 0 6 -9 32 -21 58 -12 26 -24 56
-29 67 -10 27 -25 63 -43 105 -9 19 -25 60 -37 90 -12 30 -28 71 -37 90 -8 19
-18 44 -23 55 -4 11 -12 32 -19 48 -6 15 -15 37 -20 50 -5 12 -18 43 -30 69
-12 26 -21 50 -21 53 0 3 -9 27 -21 53 -12 26 -25 57 -30 70 -5 12 -13 33 -19
47 -5 14 -14 35 -19 48 -5 12 -18 43 -30 69 -12 26 -21 50 -21 53 0 3 -9 27
-21 53 -12 26 -24 56 -29 67 -4 11 -13 34 -20 50 -7 17 -17 40 -21 53 -17 44
-27 68 -48 114 -12 26 -21 50 -21 53 0 3 -9 27 -21 53 -12 26 -25 57 -30 70
-5 12 -13 32 -18 45 -5 12 -18 43 -30 69 -12 26 -21 52 -21 56 0 5 -6 22 -14
38 -8 16 -21 45 -29 64 -8 19 -24 56 -36 82 -11 26 -21 52 -21 58 0 5 -9 25
-20 45 -11 20 -20 44 -20 53 0 10 -4 22 -9 28 -5 5 -12 19 -16 32 -6 19 -3 22
24 22 16 0 33 -4 36 -10z m590 -152 c28 -5 68 -12 90 -15 22 -3 44 -9 50 -14
5 -5 27 -9 50 -9 23 0 45 -4 51 -9 5 -5 32 -12 59 -15 28 -3 77 -9 110 -15 98
-15 186 -29 255 -41 296 -48 638 -82 990 -99 223 -11 290 -19 290 -37 0 -7 -4
-16 -10 -19 -5 -3 -10 -13 -10 -20 0 -40 -181 -398 -259 -513 -23 -34 -41 -65
-41 -70 0 -5 -9 -17 -20 -27 -11 -10 -20 -24 -20 -32 0 -7 -4 -13 -8 -13 -4 0
-15 -12 -24 -27 -9 -16 -26 -39 -38 -53 -12 -14 -34 -41 -48 -60 -26 -35 -202
-240 -205 -240 -1 0 -306 304 -677 676 -371 372 -666 673 -655 670 11 -4 43
-12 70 -18z"/>
</g>
</svg>
