<?xml version="1.0" standalone="no"?>
<!DOCTYPE svg PUBLIC "-//W3C//DTD SVG 20010904//EN"
 "http://www.w3.org/TR/2001/REC-SVG-20010904/DTD/svg10.dtd">
<svg version="1.0" xmlns="http://www.w3.org/2000/svg"
 width="512.000000pt" height="512.000000pt" viewBox="0 0 512.000000 512.000000"
 preserveAspectRatio="xMidYMid meet">
<metadata>
Created by potrace 1.11, written by Peter Selinger 2001-2013
</metadata>
<g transform="translate(0.000000,512.000000) scale(0.100000,-0.100000)"
fill="#000000" stroke="none">
<path d="M2979 4354 c-240 -43 -457 -156 -629 -327 -179 -178 -289 -388 -336
-642 -22 -121 -15 -366 15 -475 40 -149 99 -284 170 -390 l31 -45 -146 -146
-147 -147 -41 19 c-49 22 -105 24 -149 5 -18 -8 -203 -186 -424 -407 -421
-423 -423 -426 -407 -510 11 -55 20 -68 158 -208 166 -169 218 -195 314 -156
46 20 784 752 813 807 25 49 25 132 0 174 l-19 31 142 142 c78 77 145 141 150
141 5 0 37 -18 70 -40 215 -139 503 -209 754 -182 477 52 866 363 1016 812 46
138 59 218 59 375 0 319 -116 606 -331 821 -188 189 -407 305 -656 349 -108
18 -303 18 -407 -1z m365 -289 c383 -67 682 -391 725 -788 49 -438 -243 -853
-674 -958 -125 -31 -295 -31 -420 -1 -130 32 -272 105 -375 195 -137 118 -224
250 -276 422 -25 81 -27 106 -28 245 -1 133 3 166 22 235 131 456 564 730
1026 650z"/>
<path d="M2885 3638 c-165 -125 -299 -234 -297 -240 2 -6 17 -30 35 -52 17
-23 32 -43 34 -45 2 -2 120 84 264 193 l261 197 258 -195 c142 -108 263 -196
267 -196 8 0 83 94 83 104 0 4 -522 404 -590 452 -12 9 -71 -32 -315 -218z"/>
<path d="M3123 3193 l-73 -4 0 -194 0 -195 135 0 135 0 -2 198 -3 197 -60 1
c-33 0 -93 -1 -132 -3z"/>
</g>
</svg>
